<svg width="1024" height="1024" viewBox="0 0 1024 1024" fill="none" xmlns="http://www.w3.org/2000/svg">
<path d="M492.5 190.5C492 190.7 485.9 191.4 479 191.9C461 193.3 449.7 195.3 424 202C416.3 204 412.5 205.2 402 209C400.1 209.6 396.7 210.9 394.5 211.6C392.3 212.4 388.9 213.8 387 214.7C385.1 215.5 381.7 217.1 379.5 218.1C368.7 222.9 351.6 231.8 347 235.1C345.6 236 342.5 238.1 340.1 239.7C329.2 246.7 326 248.9 317.4 255.5C309.3 261.6 307.3 263.3 296.2 273.5C290.6 278.7 278.1 291.3 270 299.9C264.4 305.9 249 325.6 246 330.7C244.7 332.8 242.9 335.4 242 336.5C241.1 337.6 239.2 340.5 237.9 343C236.6 345.5 235.2 347.7 234.8 348C233.4 349.1 216 383 216 384.7C216 385.1 215.1 387.3 214.1 389.5C210.4 397.3 205.3 411.3 204 417C203.6 418.9 202.7 421.8 202 423.5C201.4 425.1 200.4 428.5 200 431C199.5 433.5 198.5 438.2 197.6 441.5C193.4 458.7 190 489.3 190 511.5C190 525.8 191.9 552.7 193.7 562.5C194.6 567.4 195.6 574 196 577C197.2 586.3 206.2 617.2 211.8 631.5C212.9 634.2 214.7 638.8 215.9 641.6C218.9 649.3 230.5 671.4 235.8 679.7C237.3 682 239.8 685.9 241.3 688.5C244.5 693.8 259 713 263 717.5C264.5 719.1 269.4 724.5 273.8 729.5C285.3 742.5 298.1 753.9 323 773.4C324.4 774.4 342.1 786 346.5 788.7C356.2 794.6 381.9 808 383.6 808C384 808 386.1 808.8 388.4 809.9C399.6 815 402.2 816 403.4 816C404.1 816 406.9 816.8 409.6 817.9C419.9 821.9 439.6 827.1 454.5 829.9C477.4 834.1 512.9 836 533 834.1C539.9 833.4 549.6 832.5 554.7 832C572.5 830.4 605.1 822.2 626 814C640 808.5 665.6 796.4 668.8 793.8C669.5 793.2 671.4 792 673 791.1C678.8 787.9 687.5 782.7 688 782.1C688.3 781.7 689.9 780.6 691.5 779.6C696.4 776.5 713.2 763.9 717 760.4C718.9 758.7 725 753.2 730.5 748.3C740.7 739 748.5 731.1 757.7 720.5C767.3 709.4 768 708.5 770.8 704.5C772.3 702.3 773.7 700.3 774 700C775.4 698.6 784.3 685.3 788 679C789.1 677.1 791.1 673.7 792.5 671.5C796 665.7 807.4 642.7 811 634C815.8 622.5 821 606.2 825.8 587.5C837.4 542 837.4 483.2 825.9 436.5C821.6 419.3 820.2 414.7 812.3 392.5C810.5 387.5 795.9 357.9 792.5 352.5C791.2 350.3 789 346.8 787.8 344.6C784.5 339.1 782.8 336.5 776 326.6C772.2 321 766.5 313.3 765.1 311.9C764.2 310.9 761.9 308.3 760 305.9C747.9 291.1 733 276.2 718.1 264C715.8 262.1 713.2 260 712.5 259.3C709.6 256.6 697.8 248 697 248C696.6 248 696 247.6 695.8 247.2C695.4 246.1 686.1 240 684.9 240C684.4 240 684 239.6 684 239.2C684 238.8 682.1 237.4 679.8 236.2C677.4 235 673.7 232.9 671.5 231.6C667.1 229 653.7 222.3 645 218.3C642 216.9 637.7 214.9 635.4 213.9C633.1 212.8 630.6 212 629.8 212C629 212 628 211.6 627.5 211.1C626.3 210.1 611.8 205.2 601 202.2C577.8 195.8 560.1 192.5 540 191C526.4 190 494.7 189.7 492.5 190.5ZM546.5 234.4C572.3 238.3 587.9 242.1 607 249C608.9 249.6 612.3 250.9 614.5 251.6C619.4 253.4 621.1 254.2 638 262.5C645.4 266.2 652.2 269.7 653 270.4C654.4 271.4 656.5 272.7 661.5 275.4C662.6 276 663.7 276.8 664 277.1C664.3 277.4 667 279.3 670 281.4C678.3 287 685.3 292.1 690.1 296C695 300 718.8 323.6 723.9 329.5C734.1 341.3 750.2 364.5 757.2 377.5C760.6 383.9 767.8 398.7 769.9 404C771.2 407 772.9 411.1 773.7 413C774.6 414.9 775.6 417.8 776 419.5C776.4 421.1 777.5 424.5 778.3 427C782.9 440.4 786.6 456.6 789.7 476.5C792.2 493.4 792.3 533.5 789.7 550.5C787 568.4 782.6 588 778.9 598.5C778.3 600.1 777.2 603.5 776.4 606C775.6 608.5 774.3 611.9 773.5 613.7C772.7 615.4 772 617.3 772 617.8C772 618.9 771.2 620.7 763.3 636.5C748.9 665.3 734.1 686 711.5 708.6C698.1 722 689.9 729.2 680.1 736.2C668.6 744.5 657.1 752 656.1 752C655.7 752 654.5 752.8 653.4 753.7C649.5 757.3 609.7 775.9 605.8 776C605.1 776.1 602.7 776.9 600.5 778C598.3 779.1 595.8 779.9 594.9 780C594.1 780 590.7 780.8 587.4 781.9C580.7 784 566.4 787.1 551 789.7C535.8 792.3 490.5 792.3 473.5 789.7C456.1 787 435.2 781.9 424.6 777.9C421.9 776.8 419.1 776 418.4 776C417 776 413.6 774.5 394.5 765.9C382.1 760.3 367.1 752 356.1 744.5C353.7 742.8 351 741 350.2 740.5C347.9 739 346.5 737.9 334.5 728.3C323.2 719.3 306.5 703.2 299.5 694.7C297.3 692 294.9 689.2 294.1 688.3C293.3 687.5 289.7 682.8 286.1 677.9C280.1 669.9 277.7 666.3 271.6 656.6C268.1 651 262 639.6 258.9 633C257.3 629.4 255 624.8 254 622.7C252.9 620.5 252 618.4 252 617.8C252 617.3 251.4 615.4 250.6 613.7C247.3 606.5 240.8 584.3 238.1 571.5C229.2 528.4 230.7 481.7 242.2 440.5C245.6 428.2 248 420.6 250 416C255.3 403.1 261.4 389.4 264.9 382.9C271.4 370.4 272.4 368.7 274.3 366.6C275.2 365.5 276 364.1 276 363.5C276 362.8 276.9 361.5 278 360.5C279.1 359.5 280 358.3 280 357.8C280 356.7 286.1 348.3 296.3 335.5C305.5 324.1 328.7 300.7 337.5 294C340.8 291.5 344.2 288.9 345 288.1C347 286.1 358.4 278.6 368.9 272.3C378.3 266.5 393.8 258.7 404 254.5C407.6 253 412.1 251.1 414 250.3C415.9 249.4 418.9 248.4 420.5 248C422.2 247.6 425.5 246.5 428 245.6C441.4 241 459.9 236.9 478.5 234.6C485.1 233.7 491.6 232.8 493 232.6C499 231.6 536.1 232.8 546.5 234.4Z" fill="black"/>
<path d="M503.1 251.2L500 254.5V278.1V301.6L503.3 304.8C506.2 307.6 507.3 308 511.8 308C516.5 308 517.5 307.6 520.5 304.5L524 301.1V277.7V254.4L520.7 251.2C517.8 248.4 516.8 248 511.8 248C506.7 248 505.8 248.3 503.1 251.2Z" fill="black"/>
<path d="M377.8 290.7C372.9 295.9 373.4 299.7 380.4 311.5C381.7 313.7 384.1 317.8 385.6 320.7C392.9 334.4 400.8 337.4 408.7 329.5C413.5 324.7 413.3 323.8 404.9 309C404.1 307.6 401.9 304.5 399.9 302C397.9 299.5 396 296.6 395.6 295.5C395.3 294.4 393.9 292.3 392.5 290.7C390.4 288.5 389.1 288 385.1 288C381.2 288 379.9 288.5 377.8 290.7Z" fill="black"/>
<path d="M631.1 289.7C629.9 290.7 628.4 292.5 627.7 293.6C624.8 298.7 621.8 303.7 620.2 306.2C610.8 320.7 610.1 324.3 615.5 329.7C618.9 333.1 619.3 333.2 624.6 332.8C630.5 332.3 633.2 330.2 636.5 323.5C637.3 321.8 638.9 319 640 317.2C641.1 315.5 642.9 312.5 644 310.7C650.4 300.3 651.2 294.9 646.8 290.3C645 288.4 643.6 288 638.9 288C635 288 632.6 288.5 631.1 289.7Z" fill="black"/>
<path d="M504.8 352.1C502.5 353.3 500.2 355.6 499 358C497.1 361.8 497 363.8 497 423.4C497 457.2 496.7 485.5 496.4 486.4C496.1 487.3 495.3 488 494.6 488C492.8 488 484.8 497.6 483.2 501.7C482.4 503.8 481.5 508.7 481.3 512.6C480.9 518.7 481.2 520.6 483.4 525.3C488.3 536.1 497.5 542.2 510.5 543.4C514.8 543.9 518.7 544.9 521 546.2C522.9 547.4 540.8 564.5 560.6 584.3L596.7 620.1L602.1 620.6C609.2 621.3 613.7 619 616.8 613.2C618.8 609.6 619.1 608.1 618.5 604.2C617.8 599.7 616.8 598.6 580.4 562.3L543 525.1V516.9C543 504.7 540.9 499.1 533.5 491.6L527.5 485.5L527 423C526.5 362.3 526.4 360.4 524.5 357C520.6 350.5 511.9 348.3 504.8 352.1Z" fill="black"/>
<path d="M289.4 378.9C282.9 382.9 282.4 391.5 288.6 396.9C290.5 398.6 292.5 400 293 400C293.5 400 294.5 400.6 295.2 401.3C295.9 402 298.8 404 301.5 405.7C304.3 407.5 307 409.4 307.6 409.9C308.3 410.5 311.5 412 314.9 413.5C320.6 415.9 321.2 415.9 324.5 414.6C328.2 413 332 407.9 332 404.3C332 399.2 329.9 396.7 321.3 391.9C315.9 388.8 313.2 387.1 305.2 381.7C297.4 376.5 294.2 375.9 289.4 378.9Z" fill="black"/>
<path d="M724 378.5C723.3 379.3 722.4 380 721.9 380C721.1 380 707.6 388.3 704.5 390.7C703.9 391.1 701.7 392.4 699.6 393.5C697.5 394.5 694.9 396.6 693.8 398C689.5 403.5 693.9 413.9 701.2 415.4C704.7 416.1 706.2 415.3 726.8 402.2C735.2 396.8 739 392.5 739 388.2C739 385.1 736.5 380.5 733.8 378.6C731 376.6 725.6 376.5 724 378.5Z" fill="black"/>
<path d="M257.7 500C251.7 501.1 248 506.1 248 512.9C248 516.2 248.7 517.8 251.4 520.8L254.8 524.5L273.7 524.8C285 525 293.9 524.7 296 524.1C303.9 521.7 306.8 510.2 301 503.9C298.7 501.3 297 500.5 292.8 499.9C286.1 498.9 262.7 499 257.7 500Z" fill="black"/>
<path d="M729.7 500C725.2 500.8 721.4 504.8 720.4 509.7C719.5 514.2 720.4 517.1 723.9 521.1L726.9 524.5H748H769.1L772 521.2C773.6 519.4 775.2 516.6 775.5 514.9C777 508.3 772.8 501.4 766.4 500C761.8 498.9 735.2 498.9 729.7 500Z" fill="black"/>
<path d="M315.4 611.3C314.3 612 311.8 613.7 309.9 615.2C308 616.6 305.1 618.6 303.3 619.7C301.6 620.7 297.8 622.9 294.8 624.6C287.2 629.1 284.5 632.3 284.5 637C284.5 641.9 288.7 646.7 293.9 647.6C296.7 648.2 298.5 647.7 302.7 645.4C305.6 643.9 308 642.3 308 641.9C308 641.5 309.4 640.7 311.1 640C312.8 639.3 314.7 638.2 315.3 637.6C316 637 318.5 635.4 321 634.1C327.8 630.5 332 625.6 332 621.3C332 618.4 331.2 616.9 328 613.8C323.6 609.7 319.5 608.9 315.4 611.3Z" fill="black"/>
<path d="M697.8 611.6C694.5 613.3 692 617.8 692 621.9C692 625.5 696.4 630.5 703.3 634.6C706 636.2 710 638.7 712.3 640.2C727.6 650 733.2 650.3 737.6 641.8C740.6 635.9 736.5 628 728.5 624.3C725.8 623.1 717.7 618.1 708.9 612.3C705 609.7 701.6 609.5 697.8 611.6Z" fill="black"/>
<path d="M397 691.2C393.3 692.2 391.2 694.2 387.7 700.4C373.1 726.4 373.5 725.4 374.8 729.7C376.3 734.7 380.7 737.4 386.2 736.7C390.8 736.1 393.6 733.4 397.7 725.8C399.2 722.9 401 720 401.6 719.5C403.2 717.9 408 710.2 408 709C408 708.5 408.4 708 408.9 708C409.4 708 410.3 706.7 411 705C414.2 697.2 405.9 688.9 397 691.2Z" fill="black"/>
<path d="M615.4 694.4C612.7 697.1 612 698.6 612 701.8C612 704.1 612.5 706.2 613 706.5C613.6 706.9 614.9 708.8 616 710.8C617.1 712.8 619.2 716.3 620.5 718.5C621.9 720.7 623.5 723.4 624 724.5C626.8 730.2 631.8 735.5 635.1 736.4C640.7 737.8 646.7 735.6 648.7 731.5C650.2 728.4 650.2 727.8 648.6 724C647.7 721.7 645.3 717.2 643.2 714C641.2 710.8 637.6 704.7 635.2 700.5C630.7 692.5 628.7 691 622.3 691C619.6 691 618 691.8 615.4 694.4Z" fill="black"/>
<path d="M506.5 718.6C500 721.9 499.8 722.9 499.6 747.6L499.5 770L502.8 773.2C505.7 776.2 506.6 776.5 512.1 776.5C517.7 776.5 518.3 776.3 521 773.1L524 769.7V747.8C524 727.1 523.9 725.6 521.9 722.9C518 717.3 512.2 715.8 506.5 718.6Z" fill="black"/>
</svg>
