<svg width="1024" height="1024" viewBox="0 0 1024 1024" fill="none" xmlns="http://www.w3.org/2000/svg">
    <path d="M345.5 223C342.3 224.5 340.9 226 339 230.1L336.5 235.3V279.9V324.5L339 329C343.2 336.6 346.1 337.4 369 337.8C396.1 338.3 400.9 337.1 405.1 328.8C406.9 325.3 407 322.3 406.9 279.8C406.9 235.3 406.8 234.4 404.7 230C403.2 227.1 401.2 224.8 398.5 223.3C394.7 221.1 393.6 221 372 221.1C352 221.1 349 221.3 345.5 223Z" fill="currentColor"/>
    <path d="M625.5 223.3C623.1 224.7 620.5 227.3 619 230L616.5 234.5V279.5C616.5 323.6 616.5 324.6 618.6 328.5C621.5 333.8 623.6 335.5 629.2 336.9C636.1 338.5 669.2 338.3 675.8 336.6C682.1 334.9 683.5 333.8 686.1 328.9C687.9 325.3 688 322.6 688 279.8C687.9 234.8 687.9 234.5 685.7 230C684 226.7 682.2 224.9 679 223.2C674.8 221.1 673.5 221 652 221C630.5 221 629.3 221.1 625.5 223.3Z" fill="currentColor"/>
    <path d="M291.1 287.5C281.9 289.8 272.4 294.6 267 299.9C265.6 301.2 263.5 302.9 262.3 303.7C261 304.6 260 305.6 260 306C260 306.4 258.5 308.4 256.6 310.4C252 315.4 245.6 328.8 243.1 338.7C241 346.9 241 347 241 538.2C241 719.4 241.1 729.9 242.9 737.5C244.7 745.8 252.5 762.9 254.7 763.7C255.4 764 256 764.8 256 765.5C256 766.2 259.5 770.1 263.8 774.2C272 782 279 786.1 290.7 790C296.9 792 298.1 792 511.9 792H726.9L734.2 789.6C741.3 787.3 749.4 783.4 752.6 780.8C756 778.1 766.6 767.3 768.7 764.5C773.7 757.8 779 744.9 781 734.9C783 725.1 783 720.3 783 538.2C782.9 362.4 782.8 351 781.1 342.5C780.1 337.5 778.6 331.9 777.8 330C776.9 328.1 775.7 325 775 323.2C774.3 321.5 773.4 320 772.9 320C772.4 320 772 319.5 772 318.9C772 317.2 766.6 309.8 761.8 305C756.8 300 746.5 292.6 742.9 291.5C741.6 291.1 740 290.4 739.5 289.9C737.6 288.4 723.6 286 716.8 286H710V303.8C710 313.6 709.5 324.3 708.9 327.6C706.1 342.1 697.7 352.2 683.9 357.8C678.4 360 677.4 360.1 651.4 359.8C628.1 359.5 624 359.3 621.1 357.7C619.2 356.8 617.3 356 616.8 356C615.5 356 609.1 351 605.8 347.5C604.3 345.8 601.4 341.3 599.3 337.5L595.6 330.5L595.2 308.2L594.8 286H512H429.2L428.8 308.2L428.5 330.5L425 337.4C420.8 345.9 414.2 352.7 406.4 356.6L400.5 359.5L374.5 359.8C346.4 360.1 344.9 360 335 354.7C328 351 323 345.6 318.9 337.2L315.6 330.5L315.2 308.2L314.8 286L305.6 286.1C300.6 286.2 294.1 286.8 291.1 287.5ZM706 414.5C711.8 417.4 714.8 420.1 718 425.5L720.5 429.5V566V702.6L717 707.5C714.7 710.6 711.6 713.3 708.5 715L703.6 717.5L515.5 717.8C375.4 718 326.1 717.8 321.8 716.9C315.4 715.6 310.2 711.9 306.4 705.9L304 702V565.5V428.9L306.9 424.7C310.5 419.4 313.4 416.8 318.5 414.2L322.5 412.1L511.8 412H701.1L706 414.5Z" fill="currentColor"/>
    <path d="M412.9 455.3C408.6 456.7 405.3 459.3 402 463.8C399.5 467.1 399.5 467.3 399.2 493.8C398.7 527.2 399 529.6 403.8 535C410.2 542.2 414.2 543 442.5 543C469.1 543 474.1 542.1 480 536.5C485.3 531.4 486 526.9 486 498C486 476.6 485.7 471 484.4 466.9C482.5 461.2 478 456.9 472.1 455.1C466.8 453.6 417.8 453.7 412.9 455.3Z" fill="currentColor"/>
    <path d="M551.1 455.6C545.3 457.4 541.5 461.2 539.5 466.8C537.5 472.7 537.3 523.4 539.3 529C541.4 535.2 545.1 538.8 551.2 541C556.3 542.8 559.5 543 580.8 543C607.4 543 611.9 542.2 617.7 536.7C623.9 530.9 624 530.1 624 498.2C624 482.2 623.6 468.1 623.1 466.8C621.4 462.5 615.3 457 610.3 455.5C603.6 453.5 557.6 453.5 551.1 455.6Z" fill="currentColor"/>
    <path d="M412.4 583.9C408.4 584.9 404.8 587.6 401.9 591.9C399.5 595.3 399.5 595.4 399.5 626.4C399.5 660 399.6 660.6 405.2 665.6C410.6 670.5 414.2 671 442 671C465.8 671 468.4 670.8 473.2 668.9C484.7 664.5 486 659.9 486 625.8C486 594.8 485.3 591.8 477 586L473.5 583.5L444.5 583.3C428.6 583.2 414.1 583.5 412.4 583.9Z" fill="currentColor"/>
    <path d="M550.6 584.4C548.5 585.2 545.5 587.1 543.9 588.6C538.6 593.7 538 597.6 538 627.6C538 657.2 538.4 659.6 543.9 665.1C549.4 670.6 553 671.2 582.6 670.8C608.2 670.5 609.7 670.3 613.8 668.2C616.5 666.8 619.1 664.2 621 661.2L624 656.5V627.1C624 593.5 623.7 591.8 615.8 586.4L611.7 583.5L583.1 583.3C560.5 583.1 553.7 583.3 550.6 584.4Z" fill="currentColor"/>
</svg>
