<svg width="1024" height="1024" viewBox="0 0 1024 1024" fill="none" xmlns="http://www.w3.org/2000/svg">
    <path d="M438.2 206C436.4 207.1 434.3 209.5 433.5 211.2C432 214.6 428 240.9 428 247.3C428 249.2 427.1 253.6 426.1 257.1C425 260.6 423.9 265.4 423.5 267.7C423.1 270.1 422.5 272.2 422 272.5C421.6 272.8 420.9 274.7 420.5 276.7C419.9 280.3 419.2 282.1 414 293.4C412.9 295.8 412 298 412 298.4C412 298.7 410.2 302 408 305.6C405.8 309.2 404 312.4 404 312.6C404 312.8 402.6 314.9 401 317.2C399.3 319.6 396.4 323.9 394.4 326.7C392.4 329.6 390.4 332 389.9 332C389.4 332 388.6 332.8 388.3 333.7C387.4 336 363.5 360 362.1 360C361.6 360 360.7 360.6 360.3 361.4C359.9 362.1 357 364.4 354 366.6C351 368.7 348.3 370.7 348 371C347.7 371.3 346.6 372.1 345.5 372.8C340 376.2 337.4 378 336.5 378.7C334.8 380.1 312.8 390.8 308 392.5C288.9 399.3 275.7 402.5 257.5 404.5C242.6 406.1 237.3 408.2 234.2 413.7C231.3 419.1 231.4 421.7 234.9 427.2C238.3 432.6 243.3 434.7 254.5 435.6C266.4 436.5 287.3 441.4 299.4 446.1C302.1 447.1 304.7 448 305.2 448C306.2 448 330.3 459.7 335.8 462.9C337.7 464 339.9 465.5 340.8 466.3C341.7 467.1 344.3 468.8 346.6 470.1C360.5 478.2 383.2 500.9 395 518.5C396.9 521.2 398.7 523.7 399 524C399.4 524.3 399.9 525.2 400.3 526C400.7 526.8 402.1 529.3 403.5 531.5C404.9 533.7 406.9 537.3 408 539.5C409.1 541.7 410.4 544.2 410.8 545C411.8 546.6 414.7 552.9 417.5 559.5C418.4 561.7 419.8 565.5 420.5 568C421.2 570.5 422.3 573.8 422.8 575.5C425.1 582 428 593.7 428 596.5C428 599.1 431.2 621.1 432.6 627.8C433.2 630.8 439.1 636.7 442.5 637.6C446.6 638.6 453.1 636.3 456.8 632.4C459.7 629.2 460 628.3 460 622.7C460.1 619.3 460.7 612.9 461.6 608.5C462.4 604.1 463.3 598.2 463.6 595.5C464.1 590.2 466.5 580.7 470.7 567.5C473.5 558.5 474.2 556.8 480.9 542C481.5 540.6 482.4 538.8 482.9 538C483.4 537.2 486 532.9 488.6 528.5C499.6 510.2 517.9 489 532.1 478.4C535.1 476.2 539.3 473.1 541.4 471.4C549.3 465.6 566.2 456.3 579.2 450.7C593.6 444.5 623 437.2 640.7 435.6C650.9 434.6 660 427.5 660 420.4C660 418.7 658.7 415.4 657.2 412.9C653.8 407.6 650.9 406.5 636.5 404.9C617.4 402.8 600.9 399 583.3 392.6C574.2 389.3 550 376.9 546.6 373.8C545.5 372.8 544.1 372 543.5 372C542.8 372 541.5 371.1 540.5 370C539.5 368.9 538.1 368 537.3 368C536.6 368 536 367.6 536 367.1C536 366.7 534.1 365 531.9 363.5C521.7 356.8 502.5 335.9 492 320C486.4 311.4 477.9 295.2 474.6 286.5C473.1 282.6 471 277.3 469.9 274.6C468.9 271.9 468 269 468 268.2C468 267.3 467.1 263.7 466.1 260.1C463.4 250.9 460 230.7 460 223.6C460 209.2 448.4 199.8 438.2 206Z" fill="currentColor"/>
    <path d="M660.4 506.1C654.9 509 652 514.1 652 521.1C652 528 648.4 548.1 645.9 554.4C644.9 557.1 644 559.9 644 560.7C644 562.2 632.2 587.1 631.1 588C630.8 588.3 628.5 591.2 626 594.4C618.3 604.5 607.9 614.2 597.5 620.8C592.7 623.8 576.8 631 570 633.3C563.4 635.4 546.6 639 535.9 640.5C530.8 641.3 525.9 644.8 523.1 649.9C521 653.7 520.9 654.6 521.9 658C522.5 660 523.9 662.9 525 664.3C527.5 667.4 536.7 670.6 547.1 671.9C551.2 672.5 555.9 673.4 557.6 674C559.2 674.6 562.3 675.5 564.5 676C573 677.8 589.5 684.9 596.8 689.9C598.3 690.9 601.5 693 603.9 694.6C610.3 698.8 626.3 715 629.5 720.7C631 723.3 632.8 726.2 633.5 727C634.6 728.4 637.7 734.4 641.3 742C645.9 752 651.5 772.1 652.3 782.1C653.4 794.1 657.2 800.6 664.8 803.1C671.1 805.2 678 800.9 680.7 793.2C681.4 791.2 682.5 785.4 683.1 780.5C684.1 771.7 684.7 768.8 687.5 758.5C690.2 748.3 695.5 735.7 700.5 727.5C701.8 725.3 703.2 722.8 703.6 722C704 721.2 704.6 720.3 704.9 720C705.3 719.7 706.8 717.7 708.5 715.5C713.6 708.6 723.2 698.9 730.5 693.5C737.1 688.6 752.2 680 754.5 680C755 679.9 757.3 679.1 759.5 678C761.7 676.9 764.1 676.1 764.7 676C765.4 676 768.6 675.1 771.7 674.1C774.9 673 780.2 671.9 783.5 671.6C793.4 670.5 802.1 667.4 805.2 663.7C807.5 661 808 659.6 808 654.8C808 643.6 805 641.3 786.5 638C779.4 636.8 771.3 634.9 768.6 633.9C765.9 632.9 763.1 632 762.4 632C761.1 632 755.6 629.7 747.1 625.6C741.1 622.8 731.6 616.5 725.7 611.7C719.3 606.4 712 599.1 712 598C712 597.5 711.4 596.7 710.7 596.3C709.9 595.9 707.4 592.6 704.9 589C697.5 578 697.3 577.5 690.2 560.5C686.3 551 680 524.6 680 517.7C680 511.9 672.4 504 667 504C665.6 504 662.6 505 660.4 506.1Z" fill="currentColor"/>
</svg>
