<svg width="1024" height="1024" viewBox="0 0 1024 1024" fill="none" xmlns="http://www.w3.org/2000/svg">
<path d="M347 264C336.4 265.1 316.7 270.5 309 274.4C307.6 275.2 303.6 277.2 300 278.9C296.4 280.7 292.3 282.9 290.9 283.8C289.4 284.7 286.4 286.6 284.1 287.9C281.9 289.3 280 290.7 280 291.2C280 291.6 279.3 292 278.5 292C276.9 292 254.9 313.4 250.9 318.8C249.6 320.7 248 322.7 247.5 323.3C241 330.5 227.8 357.5 224.8 369.5C224.3 371.7 223.2 375.6 222.4 378.1C219 388.7 217.2 419.1 218.9 435.9C221.6 462.4 228.5 485.7 241.3 511.5C247.2 523.5 252.3 532 261.5 545.6C263.7 548.9 265.8 551.9 266.2 552.5C268.7 555.7 272.8 561 274.5 563.4C275.6 565 277.2 566.9 278 567.8C278.8 568.6 281.6 572 284.3 575.4C299.4 594.4 333.4 628.3 359 650C363.7 653.9 368.9 658.4 370.5 659.9C375.1 664.1 409.9 692 410.5 692C410.8 692 411.8 692.8 412.9 693.7C414.5 695.3 422.4 701.3 437.3 712.4C439.9 714.4 442.4 716 442.9 716C443.4 716 444 716.4 444.2 717C444.4 717.5 447 719.6 450.1 721.7C453.2 723.8 458.6 727.5 462 730C465.5 732.5 469.3 735.2 470.5 736C471.8 736.8 474.9 739 477.4 740.7C480 742.5 482.3 744 482.6 744C482.8 744 485.2 745.5 487.8 747.3C500.9 756.5 507.2 758.6 516.3 756.9C519.5 756.4 523.7 754.9 525.8 753.7C530.1 751.2 542 743.5 543.5 742.3C544.1 741.9 548.3 739 553 735.8C561.1 730.4 580.3 716.8 584.5 713.5C585.6 712.6 588.6 710.5 591.3 708.8C593.9 707.1 596 705.3 596 704.8C596 704.4 596.7 704 597.5 704C598.2 704 599.3 703.4 599.7 702.7C600.1 702 603.1 699.7 606.3 697.6C609.4 695.4 612 693.3 612 692.8C612 692.4 612.5 692 613.2 692C613.8 692 615 691.3 615.9 690.5C616.8 689.6 625.8 682.3 636 674.2C646.2 666.1 655.5 658.6 656.6 657.5C657.7 656.4 662.9 651.9 668.1 647.5C678.1 639 687.3 630.4 702.9 614.9C720.6 597.3 728.5 588.5 745.7 567C746.3 566.2 748.9 562.9 751.4 559.8C753.9 556.7 756 553.7 756 553.2C756 552.6 756.4 552 756.8 551.8C757.8 551.4 764 542.2 764 541C764 540.6 764.4 540 764.9 539.8C765.6 539.5 769.9 533.2 772.6 528.5C773.2 527.4 774.7 524.7 776 522.5C784.4 508 791.1 492.8 797.1 474.6C798.7 469.7 800 465 800 464.1C800 463.3 800.9 458.7 802 454C805.3 439.2 806.5 420.9 805.1 404.7C803.4 385.6 799 365.9 793.5 353.5C790.4 346.4 785.8 337.2 783.7 333.9C782.5 332 780.6 328.9 779.5 327.2C778.5 325.4 777.2 324 776.8 324C776.4 324 776 323.4 776 322.7C776 322.1 772.2 317.4 767.5 312.3C759 303.2 746.3 292.5 736 285.8C728.5 281 710.9 272.6 703 270.2C688.2 265.5 684.9 264.8 672.5 263.8C657.7 262.5 635 263.7 626.5 266.3C623.8 267.1 619.7 268.2 617.5 268.8C606.3 271.7 591.5 278.4 575.8 287.9C563.3 295.5 551.3 305.6 536.6 320.9C532.1 325.6 527.5 330.3 526.3 331.5C525 332.7 524 334.2 524 334.9C524 335.5 523.6 336 523.1 336C522.5 336 520 339 517.4 342.6L512.6 349.3L510.1 346.2C508.7 344.5 506.6 342 505.5 340.5C499.8 333.2 495.6 328.5 485.5 318.5C471.8 304.8 466.5 300 465.1 300C464.5 300 464 299.6 464 299.2C464 298.2 450 288.6 442.5 284.5C427.3 276 417.3 272 397.6 266.5C386.5 263.3 364.4 262.3 347 264Z" fill="black"/>
</svg>
