<svg width="1024" height="1024" viewBox="0 0 1024 1024" fill="none" xmlns="http://www.w3.org/2000/svg">
<path d="M745.6 255.5C737.8 256.9 729 259.3 721 262.2C713.6 264.9 694.8 273 693.3 274.2C692.6 274.8 689.7 276.4 686.8 277.8C680.3 281.1 672.6 286 672.2 287.1C672 287.6 671.4 288 670.8 288C668.2 288 652.3 303.1 618.1 338C590.3 366.4 580.2 376 578.5 376C577.2 376 573.8 375.1 570.8 374.1C565.2 372.1 562.9 371.4 530 362C517.7 358.5 508.5 355.9 501.8 353.9C494.2 351.7 484.3 348.9 474.3 346C453 340 451 339.5 432 334C427.9 332.9 421.6 331.1 418 330C409.4 327.6 398 324.3 390 322C386.4 321 380.1 319.2 376 318C368.6 315.9 360.6 313.6 348 310C319.1 301.7 315.6 300.8 312.3 301.6C304.9 303.2 300.5 306.5 284.7 322.3C270.5 336.3 268.3 339 267.7 342.4C266.7 348.6 267.9 351.7 272.8 356C275.3 358.2 277.9 360 278.6 360C279.4 360 280 360.4 280 360.8C280 361.3 281.2 362.3 282.7 363.1C284.2 363.9 288.1 366.2 291.2 368.2C294.3 370.3 297.3 372 297.8 372C298.3 372 299.5 372.9 300.5 374C301.5 375.1 302.7 376 303.2 376C303.6 376 308 378.6 312.8 381.8C317.6 385 322.2 387.9 323 388.3C323.8 388.7 326.5 390.3 329 391.9C331.5 393.6 335.8 396.3 338.5 398C341.3 399.7 345.5 402.4 348 404C350.5 405.6 353.2 407.3 354 407.7C355.4 408.3 359.7 411 375 420.8C378 422.7 381.7 425.1 383.2 426.1C384.7 427.2 386.2 428 386.5 428C386.8 428 388.3 428.8 389.8 429.8C391.3 430.9 394.3 432.8 396.5 434.2C398.7 435.6 404 438.9 408.3 441.6C412.5 444.3 417.3 447.3 418.8 448.2C420.3 449.2 423.1 450.9 425 452C426.9 453.1 431.2 455.8 434.5 458C437.8 460.2 442.1 462.9 444 464C445.9 465.1 448.9 466.9 450.5 468C452.2 469.1 454.8 470.7 456.4 471.6C458 472.5 459.8 473.6 460.4 474.1C462.8 476.1 469.1 480 470 480C473 480 471 483.1 462.3 491.9C440.4 514 398 557.7 395.6 560.7C394.1 562.4 390.7 565.8 387.9 568.1L382.9 572.2L375 570.1C370.6 569 363.5 567.2 359.3 566.1C355 565.1 348.4 563.4 344.5 562.5C340.7 561.5 335.7 560.4 333.5 560C331.3 559.6 326.8 558.6 323.5 557.7C299.6 551.3 297.3 551 291.3 553.5C287.4 555.2 262.4 579.7 259 585.3C256 590.2 256.4 595 260.2 598.9C261.9 600.7 265 602.9 266.9 603.9C268.9 604.9 272.8 606.9 275.5 608.5C278.3 610 285.5 614.1 291.5 617.5C297.6 620.9 305.7 625.4 309.5 627.5C313.4 629.6 319.9 633.2 324 635.5C328.1 637.8 334 641.1 337 642.7C340 644.4 344.1 646.6 346 647.7C347.9 648.8 351.5 650.9 354 652.3C357.2 654.1 359.2 656.2 361.1 659.8C365.8 668.9 373.2 675.9 384.4 681.9C390.2 684.9 390.4 685.2 396.3 696.8C399.6 703.2 404.9 713.7 408.2 720C411.5 726.3 419.4 741.8 425.8 754.5C438.5 779.4 440.6 782 447.8 782C452 782 455.1 779.8 464.2 770.4C467.8 766.6 473.6 760.6 477 757C483.2 750.6 486.9 744.4 487 740.5C487 738.3 484.9 728 481.9 715.5C480.8 711.1 480 706.6 480 705.6C480 703.8 478.6 697.1 474 677C472.9 672.3 472 667.3 472 665.7C472 662.7 470.8 663.9 528.8 606.5L561.2 574.5L563.6 577.5C564.9 579.2 566.7 581.9 567.5 583.6C568.3 585.3 569.6 587.3 570.5 588C571.3 588.7 572 589.6 572 590.1C572 590.6 574.6 595 577.8 599.8C580.9 604.6 583.8 609.2 584.3 610C584.7 610.8 586.4 613.5 588 616C589.6 618.5 592.3 622.8 594 625.7C595.7 628.5 597.8 631.4 598.5 632C599.3 632.7 600 633.6 600 634.1C600 635 609 649.4 611 651.7C611.5 652.4 612 653.2 612 653.5C612 653.8 614.5 658 617.6 662.8C620.7 667.6 624.4 673.3 625.8 675.5C627.2 677.7 629.1 680.7 630.2 682.2C631.2 683.7 632 685.1 632 685.4C632 685.6 634.7 689.9 638 694.9C641.3 699.9 644 704.4 644 704.8C644 705.3 644.9 706.5 646 707.5C647.1 708.5 648 709.7 648 710.2C648 710.6 650.6 715 653.8 719.8C656.9 724.6 659.8 729.2 660.3 730C660.7 730.8 662.4 733.5 664 736C665.6 738.5 668.3 743 670.1 746C671.9 749 673.7 751.7 674 752C674.4 752.3 675.5 753.8 676.4 755.5C680.5 762.9 681.9 764.7 685.9 767.8C690.5 771.2 696.1 772 701.5 770C704.5 768.9 716 757.6 727 745C731.1 740.3 735.1 735.9 735.8 735.1C736.5 734.3 737.9 732.6 738.8 731.2C741.2 727.5 740.9 714.5 738.2 706C737 702.4 735.2 696.1 734 692C731.9 684.5 730 677.9 725.9 664C722 650.4 720.3 644.6 718 636.5C716.8 632.1 715 625.8 714 622.5C713 619.2 711.3 613.3 710.2 609.5C705.9 594.7 700.3 575.4 698 567.5C697 564.2 695.2 557.9 694 553.5C692.8 549.1 691 542.8 690 539.5C687.2 530.1 684.3 520.2 682 512C680.8 507.9 679 501.6 677.9 498C676.9 494.4 675.5 489.7 674.9 487.5C674.3 485.3 673 480.7 672 477.3L670.3 471L710.9 430.3C748.5 392.6 759.5 380.3 767.6 367.5C768.6 365.8 769.7 364.3 770.1 364C771.4 362.9 781.7 343.2 785.3 335C791.5 320.9 793.6 314.9 796.6 303.5C800.8 287.3 799.2 276.4 790.9 266.8C781.4 255.6 766.1 251.8 745.6 255.5Z" fill="black"/>
</svg>
