<svg width="1024" height="1024" viewBox="0 0 1024 1024" fill="none" xmlns="http://www.w3.org/2000/svg">
<path d="M430 224C418.1 225.5 403.7 232.8 394 242.1C388.4 247.6 384 252.7 384 253.9C384 254.4 383.3 255.3 382.5 256C380.6 257.6 377 264.2 374.4 271C370.1 282.1 369.1 289.4 368.9 312.2L368.7 334H301.1C229.4 334 228.5 334.1 219.5 338.8C215.4 341 207.1 349 203.4 354.5C202.3 356.1 200.4 360.6 199.2 364.4C197.1 371.1 197 372.9 197 419.5V467.6L203.3 469.7C216.9 474.1 246.7 482.7 256 484.8C258.5 485.4 262.5 486.4 265 487C283.9 491.9 290.1 493.3 331.2 502C336.5 503.1 341.9 504 343.2 504C344.5 504 350.5 504.8 356.5 505.9C371.1 508.5 390.3 511 403.7 512C409.6 512.4 423.2 513.6 433.8 514.5C444.4 515.4 453.7 515.9 454.5 515.6C455.6 515.2 456 513.2 456 507.5C456 501.5 456.5 499 458.4 495.2C461.2 489.7 465.9 485.1 471.5 482.1C475.3 480.1 476.8 480 511.3 480H547.1L552.5 482.6C561.9 487 567.2 495.6 568 507.5L568.5 515.5L581 515.2C587.9 515 599 514.2 605.7 513.4C612.4 512.6 620.5 512 623.7 512C629.1 512 642.5 510.3 667.5 506.4C673 505.5 680.7 504.4 684.5 504C688.4 503.5 693.8 502.4 696.5 501.6C699.3 500.7 702.6 500 704 500C705.4 500 710.1 499.2 714.5 498.1C718.9 497.1 727 495.2 732.5 494C745.8 491.1 768.5 485.5 781 482C784.6 481 791.1 479.2 795.5 478C799.9 476.8 806 475 809 474C812 473 816.5 471.7 819 471C827.9 468.7 827.2 473.6 826.7 417.9C826.4 364.7 826.3 364.2 820.8 355.1C818.1 350.7 808.1 340 806.7 340C806.1 340 804.9 339.3 803.9 338.4C799.5 334.4 793.5 334.1 722.8 334H655V314.2C655 290.2 652.5 275.6 646.9 266C646.4 265.2 645 262.6 643.8 260.2C642.6 257.9 641.2 256 640.8 256C640.4 256 640 255.4 640 254.7C639.9 252 618.6 232 615.7 232C615.1 232 613.9 231.4 613.1 230.6C612.2 229.8 608.1 227.9 604 226.4L596.5 223.6L516.5 223.4C472.5 223.3 433.6 223.6 430 224ZM588.9 274.9C595.3 278 597.4 279.7 601.1 285C605 290.7 605.9 296.1 606 315.7V334H512H418V315.4C418 305.2 418.5 295 419.1 292.6C421.1 284.4 428.8 276.7 438.5 273.2C440.5 272.5 464.2 272.1 512.2 272.1L583 272L588.9 274.9Z" fill="black"/>
<path d="M197 614C197 718.5 197.2 734.5 198.5 737.7C199.3 739.6 200 742 200 742.9C200 743.8 200.7 745.6 201.5 747C202.2 748.4 203.6 751 204.4 752.7C205.2 754.5 206.4 756 206.9 756C207.5 756 208 756.5 208 757.2C208 758.8 216.7 766.7 221.7 769.5C224 770.8 228.6 772.8 232 773.9L238 776H512.5H787L793.4 773.6C801.7 770.5 806.6 767.3 812.8 761.1C818.9 755 822.6 748.1 825.1 738C826.9 730.9 827 724.4 827 612.1V493.8L824.8 494.4C823.5 494.8 820.3 495.7 817.5 496.5C804.3 500.1 797.5 502.2 795.9 503C794.9 503.6 793.3 504 792.3 504C791.3 504 787.6 504.8 784 505.9C780.4 507 773.7 508.8 769 510C748.3 515.1 745.2 515.9 740.5 516.9C737.8 517.5 733.7 518.4 731.5 518.9C703.2 525.7 652.8 534.1 629 536C622.8 536.5 613.4 537.4 608.1 538C602.8 538.6 591.8 539.4 583.5 539.8L568.5 540.5L568 557C567.5 572.6 567.3 573.8 564.7 578.3C560.1 586.5 554.8 590.7 546.5 592.7C539.3 594.4 485.6 594.4 477.5 592.6C470.6 591.1 466.4 588.8 462.8 584.5C457 577.6 456.5 575.7 456 557.5L455.5 540.5L449.5 540.3C436.7 539.8 392.8 535.8 379 533.9C355.9 530.7 323.1 525.2 308 521.9C285.7 517 280.1 515.7 273.5 513.9C269.7 512.9 265.6 512 264.6 512C263.5 512 259.7 511.1 256.1 510.1C252.5 509 245.9 507.2 241.5 506C234.1 504.1 226.7 502 216.5 499C211.6 497.6 197.9 494 197.4 494C197.2 494 197 548 197 614Z" fill="black"/>
<path d="M482.6 506.1L480 508.1V536.8C480 553.1 480.4 566.1 481 567C481.8 568.3 486.3 568.5 511.9 568.5C528.4 568.5 542.2 568.1 542.7 567.7C543.6 566.8 544.4 511.8 543.6 508.4C542.6 504.5 539.3 504 511.6 504C486.5 504 485.1 504.1 482.6 506.1Z" fill="black"/>
</svg>
