<svg width="180" height="180" viewBox="0 0 180 180" fill="none" xmlns="http://www.w3.org/2000/svg">
  <path d="M18.751 82.0381C18.751 72.8567 22.9553 64.1808 30.1616 58.4916L71.4116 25.9258C82.3109 17.3211 97.691 17.3211 108.59 25.9258L149.84 58.4916C157.047 64.1808 161.251 72.8567 161.251 82.0381V131.25C161.251 147.819 147.82 161.25 131.251 161.25H120.001C115.859 161.25 112.501 157.892 112.501 153.75V131.25C112.501 122.966 105.785 116.25 97.501 116.25H82.501C74.2167 116.25 67.501 122.966 67.501 131.25V153.75C67.501 157.892 64.1431 161.25 60.001 161.25H48.751C32.1824 161.25 18.751 147.819 18.751 131.25L18.751 82.0381Z" stroke="currentColor" stroke-width="11.25"/>
</svg>

