<svg width="1024" height="1024" viewBox="0 0 1024 1024" fill="none" xmlns="http://www.w3.org/2000/svg">
<path d="M500.5 282.1C497.8 283.2 494.4 284.8 493 285.6C490.6 286.9 454 305.3 389 338C371.7 346.7 357 354.2 356.5 354.7C355.9 355.1 340.2 363.2 321.5 372.6C302.8 382 278.7 394.2 268 399.7C250.1 408.8 246.3 410.8 242 413.1C241.2 413.6 235.1 416.6 228.5 420C198.1 435.2 196 436.8 196 444.5C196 448.7 196.5 450.2 198.8 452.8C200.4 454.6 202.2 456 202.8 456C203.5 456 204 456.4 204 456.8C204 457.2 207.5 459.3 211.7 461.4C216 463.5 223 467.1 227.2 469.4C237 474.6 245.4 479.1 261 487.3C274.5 494.3 282.1 498.4 311.8 514.1C316 516.4 324.5 520.8 330.5 524C336.6 527.2 344.9 531.6 349 533.9C353.1 536.1 359.7 539.6 363.5 541.6C367.4 543.6 374.1 547.1 378.5 549.4C382.9 551.8 391.7 556.4 398 559.8C404.3 563.1 413.1 567.7 417.5 570.1C421.9 572.4 428.9 576.1 433 578.2C437.1 580.4 443.9 584 448 586.2C452.1 588.4 460.5 592.8 466.5 596C472.6 599.2 481.5 603.9 486.5 606.5C496.8 612 503.8 614 511.8 614C522.1 614 524.8 612.9 556.5 596C569.6 589 583.2 581.8 587.5 579.7C589.7 578.6 591.7 577.5 592 577.1C592.3 576.8 596.8 574.3 602 571.7C607.2 569.1 616.9 564 623.5 560.4C630.1 556.9 637.3 553.1 639.5 552C641.7 550.9 646.9 548.1 651 545.9C655.1 543.6 665 538.4 673 534.2C681 530 689.8 525.4 692.5 523.9C695.3 522.4 700.7 519.6 704.5 517.6C708.4 515.6 714.9 512.1 719 509.9C723.1 507.6 732.6 502.7 740 498.8C747.4 494.9 755 490.9 756.8 489.8L760 487.8V546.2C759.9 601.7 759.8 604.7 758 608.5C756.9 610.7 756 613.2 756 614C756 614.8 755.1 617.3 754 619.5C752.9 621.7 752.1 624.1 752 624.8C752 625.5 751.3 627.4 750.5 629C748 633.8 744.8 651.9 745.5 657C746.5 663.6 749.1 671.1 750.6 671.7C751.4 672 752 672.7 752 673.4C752 675 758.2 679.7 763.3 682C769.8 685 783.2 684.8 790 681.6C799.6 677.1 805.6 668.1 806.6 656.5C807.2 650.2 804.6 635.4 801.8 628.9C800.4 625.6 799.4 623 797 616C796.3 614.1 794.9 610.2 793.9 607.5C792.1 602.8 792 598.6 792 537.4V472.4L797.8 469.2C800.9 467.5 807.1 464.3 811.5 462.1C821.2 457.3 827.6 452 828.5 448.1C829.5 443.5 827.4 437.7 823.9 435.1C822.2 433.9 814.3 429.4 806.2 425.3C780.4 412.1 748.3 395.7 718.5 380.6C702.6 372.5 689.1 365.4 688.6 364.9C688 364.4 686.8 364 685.9 364C684.9 364 684 363.6 683.8 363.2C683.7 362.7 676.3 358.7 667.5 354.3C652.4 346.7 613.3 326.8 610 325.1C609.2 324.7 607.4 323.7 606 323C601.2 320.4 566.4 302.7 544.5 291.6L522.5 280.5L514 280.2C507.2 280 504.5 280.4 500.5 282.1Z" fill="currentColor"/>
<path d="M314.7 544.7C314.3 545 314 565.6 314 590.4C314 643.7 314.6 649.4 321 662.2C326.4 673.1 333.9 682 346 692.1C348.3 694 350.7 696 351.3 696.5C352.8 697.9 361 703.4 363 704.3C363.8 704.8 366.3 706.2 368.5 707.5C376.7 712.4 401.2 724 403.4 724C404 724 405.8 724.7 407.4 725.5C409 726.4 412 727.5 413.9 728C415.9 728.5 419.5 729.6 422 730.4C434.2 734.4 455.1 739 466 740C470.7 740.5 479.9 741.4 486.5 742.1C500.1 743.4 535.8 742.9 551.5 741.1C557 740.4 565.8 739 571 738C576.2 736.9 581.2 736 582 736C585.4 736 618.6 725.4 628 721.3C635.7 717.9 654.6 708.4 657.8 706.3C659.6 705 661.3 704 661.6 704C663 704 677.6 692.6 684 686.5C691 679.9 696 674.3 696 673.2C696 672.6 696.4 672 696.9 671.8C697.9 671.5 701.4 665.9 703.1 662C703.7 660.6 704.9 658.1 705.7 656.5C709 650.1 709.9 635 710 589.2C710 552.8 709.8 544.8 708.6 544.4C707.9 544.1 703.3 546 698.4 548.7C693.5 551.3 685.7 555.4 681 557.8C676.3 560.1 669.1 563.9 665 566.1C660.9 568.4 651.7 573.2 644.5 577C637.4 580.7 628.1 585.5 624 587.7C603 598.9 598.1 601.5 593.5 603.8C590.8 605.2 588.4 606.7 588.2 607.2C588 607.6 587.1 608 586.1 608C585.2 608 584 608.4 583.4 608.9C581.3 611 542.1 630.7 534 633.8C525.2 637.1 513.2 638.2 502 636.6C496.8 635.9 490.7 634.5 488.5 633.5C478.2 628.9 434.2 606.5 432.5 604.9C432 604.4 430.8 604 429.8 604C428.8 604 428 603.6 428 603.1C428 602.6 426.3 601.5 424.3 600.6C422.2 599.7 416.5 596.8 411.5 594.2C393.8 584.6 366.1 570 351.5 562.4C347.7 560.4 342.3 557.6 339.5 556.1C316.7 543.7 315.9 543.4 314.7 544.7Z" fill="currentColor"/>
</svg>
