<svg width="1024" height="1024" viewBox="0 0 1024 1024" fill="none" xmlns="http://www.w3.org/2000/svg">
    <path d="M500 192.6C483.9 195.4 478.8 196.5 474.6 198.1C471.9 199.2 469.3 200 468.7 200C467.8 200 460.7 203.1 456.5 205.3C455.4 205.9 453.2 207 451.5 207.9C449.9 208.7 448.1 209.8 447.5 210.2C447 210.7 444.3 212.5 441.5 214.2C434.2 218.9 414.2 239.3 408.4 248C396.6 266 389.5 284.9 387.9 302.9C387.5 308.2 387.1 324.3 387 338.7V365H345.5C306.9 365 303.6 365.1 298.4 366.9C286.1 371.3 281.4 380.1 280.1 401.5C279.6 408.6 278.5 422.1 277.6 431.5C276.7 440.8 275.1 458.5 274 470.7C267.4 544.5 264.6 576.1 262 602.5C260.9 614 260 625.5 260 628C260 630.5 259.3 638.1 258.5 645C257.6 651.9 256.5 663.3 256.1 670.5C255.2 683.4 253.7 699.8 249.9 738.5C247.5 764 247.5 770.7 250.1 780C257.1 804.8 273.6 821.8 298.5 829.6C304.3 831.4 311.4 831.5 512.5 831.5C713.2 831.5 720.7 831.4 726 829.6C735 826.6 741.4 823.7 743.6 821.8C744.7 820.8 746.1 820 746.8 820C748.7 820 762.4 805.8 766.4 799.6C768.5 796.4 771.6 790.3 773.3 786.1C776.3 778.6 776.4 778.2 776.4 761.5C776.3 751.6 775.4 735.8 774.2 723.5C773 711.9 771.3 695.5 770.4 687C769.6 678.5 768.4 665.8 768 658.9C767.5 651.9 766.4 641 765.5 634.6C764.7 628.1 764 620.6 764 617.7C764 614.8 763.1 604.4 762 594.5C760.9 584.6 759.6 571.3 759.1 565C758.5 558.7 757.6 548.5 757 542.5C756.4 536.4 755.1 522.5 754 511.5C753 500.5 751.4 484.3 750.4 475.5C749.5 466.7 748.4 454.1 748 447.5C747.6 440.9 746.6 429 745.7 421C744.8 413 743.6 401.8 743.1 396C742.5 390.2 741.4 383.8 740.7 381.8C738.5 375.7 732.2 369.2 726.2 367C721.3 365.1 718.3 365 679.1 365H637.3L636.7 330.2C636.2 298.7 636 294.9 634.1 289C633 285.4 632 281.7 632 280.7C632 279.7 631.1 277 630 274.8C628.9 272.5 628 270.2 628 269.8C628 268.7 622.7 257.8 619.9 253C611.7 239.1 595.4 222.1 581 212.6C574.1 208.1 557.9 200 555.6 200C554.9 200 552.1 199.2 549.4 198.1C541.4 195 527.3 192.7 514.5 192.4C507.9 192.3 501.4 192.3 500 192.6ZM535 242.5C549.1 246.9 559 252.7 568.6 262.4C579.6 273.5 585.4 283.9 589.6 299.9C591.9 308.7 592 310.8 592 337.1V365H512.5H433V337.7C433 314.8 433.3 308.8 434.9 301.4C440.6 274.1 460.3 252.2 487.5 242.9C500 238.6 521.8 238.4 535 242.5Z" fill="currentColor"/>
</svg>
