<svg width="1024" height="1024" viewBox="0 0 1024 1024" fill="none" xmlns="http://www.w3.org/2000/svg">
    <path d="M487 283C481.2 284.5 474.9 286.4 473 287.1C467.7 289.2 452 298.2 452 299.1C452 299.6 451.5 300 450.9 300C450.2 300 448.7 301 447.5 302.2C446.3 303.5 443.4 306.3 441 308.5C435 314.1 427.9 322.8 425.5 327.5C424.4 329.7 423 332 422.3 332.7C421.7 333.4 420.8 335 420.5 336.3C420.1 337.5 419 340.3 418 342.5C414.2 350.7 412.1 360.6 410.9 376.5C410 389.9 410 395.5 411.3 411C412.2 421.2 413.6 431.5 414.4 433.9C415.3 436.3 416 438.9 416 439.6C416 442.1 422.9 457.1 427 463.5C432.2 471.7 442.5 482.8 451.7 490.1C457.4 494.7 474.4 504 477 504C477.6 504 480.9 505 484.3 506.2C489.9 508.2 492.4 508.4 511.5 508.4C531.6 508.5 532.9 508.3 540.6 505.8C577.5 493.6 601 468.1 609.9 430.5C611.8 422.3 612 418.5 612 394C611.9 372.6 611.6 365.2 610.4 360.5C609.5 357.2 608.5 352.8 608 350.7C607.6 348.6 606.5 345.2 605.5 343.2C604.5 341.2 602.8 337.5 601.6 335C595.8 322.7 582.1 307.1 568.9 297.9C551.5 285.7 532.5 279.9 510.6 280.1C499.6 280.1 495.8 280.6 487 283Z" fill="currentColor"/>
    <path d="M298 305C295 305.5 291.2 306.3 289.7 306.9C288.1 307.5 286 308 284.9 308C278.8 308 256.7 322.5 250.6 330.5C249.2 332.3 247.3 334.5 246.5 335.4C243.7 338.2 237 351.9 234.4 360.2C231.8 368.1 231.7 369.5 231.8 390.5C231.8 410 232.1 413.2 233.9 418.9C235.1 422.4 236 425.9 236 426.7C236 427.5 236.7 429.4 237.5 430.8C238.3 432.3 239.6 435.1 240.4 437C242.4 441.5 243.6 443.4 248.5 449.5C257.8 461.2 265.7 467.1 280.5 473.5C292.7 478.8 316.4 479.4 332 474.8C337.2 473.3 352 466 352 464.9C352 464.4 352.6 464 353.4 464C354.2 464 358.6 460 363.2 455.1C377.2 440.2 383 426 385.1 401.9C388.3 363.1 379.1 339.4 352.7 318.3C349.8 316 333.2 308 331.3 308C330.3 308 327.4 307.4 324.9 306.6C318.9 304.8 304.9 303.9 298 305Z" fill="currentColor"/>
    <path d="M707.5 304.6C701.6 305.5 687.5 309.2 684.5 310.7C682.9 311.6 680.7 312.7 679.8 313.1C671.1 317.4 660.5 326.3 654.6 334.3C648.4 342.8 644 350.3 644 352.3C644 353.1 643.2 355.7 642.1 358.1C639 365.5 637.5 385.4 639 401.6C640.3 417.2 642.3 424.8 648.1 436.5C652.7 445.7 654.3 448 662.3 456.2C667.8 461.8 682.2 472 684.6 472C685.2 472 687.2 472.7 689 473.6C697 477.6 718 479.1 731.5 476.6C742.4 474.6 756.2 468.3 762.2 462.7C763.9 461.2 765.4 460 765.7 460C765.9 460 767.4 458.8 768.9 457.2C778.7 447.2 786 433.9 789.6 419.2C791.7 410.7 792 407.2 792 390.5C792 376.3 791.6 370 790.4 366C789.6 363 788.5 358.9 788.1 357C787.2 353.3 780.9 341.1 777.5 336.4C774.5 332.4 763.9 321.7 760.6 319.5C759 318.4 756.5 316.7 755.1 315.7C753.7 314.8 750.9 313.3 749 312.5C747.1 311.6 744.8 310.5 743.8 310C738.4 307 715.2 303.5 707.5 304.6Z" fill="currentColor"/>
    <path d="M266 497.5C265.2 497.7 260.9 498.4 256.5 499C244.4 500.8 235.4 503.7 224.5 509.3C223.4 509.9 221.3 511 219.9 511.7C218.4 512.4 216.7 513.7 216 514.5C215.3 515.3 214.3 516 213.8 516C210.9 516 196.3 530 188.5 540.1C183.9 546.1 176 561.8 176 564.9C176 566 175.2 569.7 174.3 573.2C171.7 583 171.8 612.3 174.5 620.9C178 632.2 187.5 640 204.5 645.7C218.4 650.4 223.9 652 225.9 652C227.1 652 231.3 652.9 235.2 654C239.2 655.1 243.7 656 245.3 656C246.8 656 252.9 656.9 258.8 657.9C272.3 660.4 307.4 663.2 312 662.2L315.5 661.4L316.1 651.5C316.6 641.9 318.5 632.5 321.7 623C322.5 620.5 323.6 617.1 324 615.4C325.1 610.9 335.3 590.1 339.2 584.6C341 581.9 343 579.1 343.5 578.2C344.1 577.4 346.4 574.6 348.7 572.1C351.1 569.6 353 567.2 353 566.8C353 566.4 357.2 562.4 362.3 557.9C373.2 548.2 387.2 538.8 399.3 533.1C405.7 530.1 408 528.5 408 527.1C408 522.7 388 507.6 376.9 503.5C361.1 497.7 353.6 497 308 497.1C285.7 497.2 266.8 497.4 266 497.5Z" fill="currentColor"/>
    <path d="M668.5 498C666.3 498.5 661.9 499.3 658.8 499.9C655.6 500.4 651.6 501.5 649.8 502.4C648 503.2 645.4 504.2 644.1 504.5C642.8 504.9 639.6 506.5 637.1 508.1C634.6 509.7 631.6 511.4 630.5 511.9C627.1 513.4 615 525.5 615 527.3C615 528.4 616.4 529.7 618.8 530.6C628.6 534.5 643.1 543 652.9 550.5C658.4 554.7 679.3 576.6 682.5 581.5C684.6 584.8 686.6 587.7 687 588C688.2 588.9 699.3 612.2 700 615.4C700.4 617.1 701.5 620.5 702.3 623C705.4 632.2 707.3 641.8 707.9 651.5L708.5 661.5L715 661.8C730.3 662.7 765.3 658.9 789.5 653.8C818.4 647.8 833 642 841.9 633.1C846.7 628.3 847.8 626.4 849.5 620.5C852.4 610.3 852.2 588.7 849.1 573C847.8 566.7 846.5 561 846.1 560.5C845.7 559.9 844.6 557.4 843.6 554.9C841.6 549.4 837.3 542.6 831.1 535C816.2 516.7 795.6 504.5 770.5 498.9C763.4 497.4 675.1 496.6 668.5 498Z" fill="currentColor"/>
    <path d="M451 537.6C446.9 538.4 441.2 539.4 438.4 539.9C435.6 540.4 431.6 541.6 429.5 542.4C427.5 543.3 425.1 544 424.4 544C423.1 544 408 550.7 403.5 553.2C402.4 553.8 400.6 554.8 399.5 555.4C396.5 557.1 391.8 560.2 388.9 562.5C387.4 563.6 384.5 565.8 382.4 567.4C376.4 572 360 588.9 360 590.5C360 591.3 359.6 592 359.1 592C358.6 592 357 593.9 355.6 596.2C352.1 602.2 344 618.5 344 619.6C344 620.1 343.1 622.7 342.1 625.5C337.4 637.6 336 648.6 336 671.7C336 691.3 336.2 693.9 338 697.9C339.1 700.3 340 702.8 340 703.4C340 704.1 340.9 705.6 342 706.8C343.1 708 344 709.2 344 709.5C344 711.6 359.4 724 362 724C362.6 724 364.2 724.7 365.5 725.6C366.9 726.5 369.4 727.6 371.2 728C373 728.4 376.5 729.5 379 730.3C414.2 742.4 483.3 749.2 537.5 746.1C548.5 745.4 563.8 744.5 571.5 744.1C608.8 741.9 648.5 732.3 668.5 720.7C671.4 719 680 710.9 680 709.8C680 709.3 680.9 708 682 706.8C683.1 705.6 684 704 684 703.3C684 702.5 684.8 700.7 685.8 699.3C687.3 697 687.5 693.4 687.8 673C688.2 647.6 687.4 641.6 681.3 623.1C677.9 612.9 666.9 592 664.9 592C664.4 592 664 591.4 664 590.6C664 588.4 644.3 568.8 637 563.8C635.6 562.8 632.6 560.7 630.3 559.1C625.4 555.6 601.8 544 599.7 544C598.9 544 596.5 543.3 594.4 542.4C592.2 541.5 588.3 540.4 585.5 540C582.8 539.5 576.9 538.5 572.5 537.6C561.2 535.4 462.4 535.4 451 537.6Z" fill="currentColor"/>
</svg>
