<svg width="1024" height="1024" viewBox="0 0 1024 1024" fill="none" xmlns="http://www.w3.org/2000/svg">
    <path d="M489.5 187.2C474.2 189.2 459.8 193.7 444.7 201C434.7 205.9 430.4 208.3 428.1 210.4C427.1 211.3 426 212 425.6 212C424.8 212 423.1 213.2 415.1 219.7C409.6 224.2 396.7 237.1 392.3 242.5C388.9 246.8 383.6 254.5 379.3 261.5C376.8 265.6 368 284.3 368 285.6C368 286.1 367.1 288.7 366.1 291.5C360.9 304.9 359.7 314.2 359.6 338.5C359.6 359 359.9 362.4 361.8 369.7C363 374.2 364 378.7 364 379.5C364 380.4 364.9 383 366 385.2C367.1 387.5 368 390 368 390.7C368 392.5 375.3 408.4 378.4 413.5C380.7 417.1 389.9 430.9 391.4 432.9C392 433.6 397.9 439.7 404.5 446.4C416 458 429.9 468.6 437.1 471.3C438.7 471.9 440 472.7 440 473.1C440 473.5 441.5 474.3 443.3 475C445 475.7 448.3 477.1 450.5 478.1C478.8 491.1 518 494.1 549 485.8C560.2 482.8 571.8 478.4 578 474.8C578.8 474.4 581.3 473.1 583.5 472C590 468.7 597.2 463.9 604.9 457.6C613.5 450.5 632 431.3 632 429.4C632 428.6 632.4 428 632.9 428C634.4 428 645.3 409.7 649.3 400.3C658.6 378.7 662.6 359.7 662.4 338.5C661.9 283.7 633 233.6 586.1 206.2C569 196.2 549 189.3 530.4 187.1C519.8 185.8 499.6 185.9 489.5 187.2Z" fill="currentColor"/>
    <path d="M446.4 529C429 530.2 409.8 534.1 396 539C367.4 549.3 342.6 564.8 321.1 585.8C312.2 594.6 300 609 300 610.8C300 611.4 299.6 612 299.2 612.2C298.2 612.6 292 621.8 292 623C292 623.4 291.6 624 291.2 624.2C290.5 624.4 284.7 634.5 281.3 641.6C280.8 642.6 279.4 645.4 278.2 647.7C277 650 276 652.5 276 653.3C276 654 275.1 656.5 274 658.8C272.9 661 272 663.8 272 664.9C272 666 271.6 667.1 271.1 667.4C270.3 668 269.8 669.7 266.1 685C260.9 707.1 259.3 738.1 262.9 749.6C266.7 761.4 273.3 770.4 284.5 778.8C297.2 788.3 309 794 330.5 801C346.6 806.3 363.2 810.9 369.5 811.7C371.2 811.9 376.3 813 381 814C389.2 815.8 404.6 818.1 432.5 821.5C443.8 823 457.2 823.7 500 825.3C515 825.9 574.1 823.4 588.5 821.6C595.7 820.7 606 819.3 611.5 818.4C617 817.5 624.7 816.4 628.5 816C632.4 815.5 637.8 814.4 640.5 813.6C643.3 812.7 646.6 812 648 812C649.4 812 653.7 811.1 657.5 810.1C674.3 805.5 676.7 804.8 680 804.1C683.3 803.3 685.9 802.4 699 797.7C716.8 791.4 737.5 778.8 746.6 768.9C750.8 764.2 756 756.8 756 755.5C756 754.8 756.8 752.8 757.8 750.9C759.2 748 759.5 744.6 759.5 727.5C759.5 706.6 758.1 695 754 680.9C752.9 677.3 752 673.7 752 672.8C752 668.4 737.3 635.5 730.8 625.3C725 616.3 722.5 612.5 722 612C721.7 611.7 719.5 608.9 717.2 605.7C707 592 694.5 579.9 676.5 566.3C666.6 558.8 645.6 547.2 634 542.8C622 538.3 620.5 537.8 613.5 535.8C600.1 532 588 530.1 570.6 529C554.3 527.9 461.4 527.9 446.4 529Z" fill="currentColor"/>
</svg>
