<svg width="180" height="180" viewBox="0 0 180 180" fill="none" xmlns="http://www.w3.org/2000/svg">
    <path d="M38.0381 60.0002C43.5708 50.4174 51.6457 42.5512 61.3701 37.2712C71.0945 31.9913 82.0896 29.5034 93.1398 30.0825C104.19 30.6616 114.865 34.2852 123.984 40.5527C133.103 46.8202 140.312 55.4874 144.812 65.5961M24.2383 41.3655L29.7089 65.062C30.6406 69.098 34.6678 71.6145 38.7037 70.6827L62.4003 65.2121M141.961 119.999C136.429 129.582 128.354 137.449 118.629 142.728C108.905 148.008 97.9099 150.496 86.8598 149.917C75.8096 149.338 65.1348 145.714 56.0156 139.447C46.8963 133.18 39.6879 124.512 35.1872 114.404M155.761 138.634L150.291 114.938C149.359 110.902 145.332 108.385 141.296 109.317L117.599 114.788" stroke="currentColor" stroke-width="11.25" stroke-linecap="round"/>
</svg>
