<svg width="180" height="180" viewBox="0 0 180 180" fill="none" xmlns="http://www.w3.org/2000/svg">
    <path d="M52.5 37.5C48.5218 37.5 44.7064 39.0804 41.8934 41.8934C39.0804 44.7064 37.5 48.5218 37.5 52.5V127.5C37.5 131.478 39.0804 135.294 41.8934 138.107C44.7064 140.92 48.5218 142.5 52.5 142.5H127.5C131.478 142.5 135.294 140.92 138.107 138.107C140.92 135.294 142.5 131.478 142.5 127.5V52.5C142.5 48.5218 140.92 44.7064 138.107 41.8934C135.294 39.0804 131.478 37.5 127.5 37.5H52.5ZM82.5 115.605L62.1975 95.3025L72.8025 84.6975L82.5 94.395L110.948 65.9475L121.553 76.5525L82.5 115.605Z" fill="currentColor"/>
</svg>
