<svg width="180" height="180" viewBox="0 0 180 180" fill="none" xmlns="http://www.w3.org/2000/svg">
<path d="M92.25 36.75C95.25 35.25 96.75 31.5 96 28.5C95.25 25.5 91.5 22.5 87.75 22.5C51 23.25 22.5 53.25 22.5 90C22.5 127.5 52.5 157.5 90 157.5C118.5 157.5 143.25 139.5 153 113.25C154.5 110.25 153 106.5 150 104.25C147 102 143.25 102.75 141 105C133.5 111.75 123.75 115.5 113.25 115.5C90 115.5 70.5 96.75 70.5 72.75C70.5 58.5 78.75 44.25 92.25 36.75ZM113.25 130.5C117 130.5 120.75 130.5 123.75 129.75C114.75 138 102.75 142.5 90 142.5C60.75 142.5 37.5 119.25 37.5 90C37.5 71.25 48 54 63.75 45C58.5 53.25 56.25 63 56.25 73.5C55.5 105 81.75 130.5 113.25 130.5Z" fill="currentColor"/>
</svg>
