<svg width="180" height="180" viewBox="0 0 180 180" fill="none" xmlns="http://www.w3.org/2000/svg">
    <path d="M101.352 28.5445C109.401 20.4839 122.455 20.4783 130.51 28.5328L149.198 47.2213C157.184 55.2071 157.267 68.1364 149.385 76.2242L80.1365 147.273C74.8451 152.702 67.5867 155.764 60.0086 155.763L39.3669 155.762C29.9229 155.762 22.3513 148.012 22.5017 138.62L22.5144 138.17L23.4002 117.103C23.6964 110.06 26.6237 103.385 31.6023 98.399L101.352 28.5445ZM153.861 143.958C156.966 143.958 159.483 146.477 159.483 149.585C159.483 152.692 156.966 155.211 153.861 155.212H107.947L107.659 155.205C104.688 155.054 102.325 152.595 102.325 149.585C102.325 146.574 104.688 144.115 107.659 143.964L107.947 143.958H153.861ZM39.5574 106.354C36.5703 109.346 34.8142 113.351 34.6365 117.577L33.7507 138.644L33.7459 138.943C33.7767 142.006 36.2701 144.507 39.3679 144.507L60.0095 144.509C64.5562 144.509 68.9109 142.673 72.0857 139.416L121.079 89.1461L88.8845 56.9517L39.5574 106.354ZM122.56 36.4937C118.899 32.8329 112.966 32.835 109.307 36.4986L96.8337 48.9908L128.932 81.0894L141.334 68.3658C144.917 64.6895 144.879 58.8121 141.249 55.1822L122.56 36.4937Z" fill="currentColor"/>
</svg>
