<svg width="180" height="180" viewBox="0 0 180 180" fill="none" xmlns="http://www.w3.org/2000/svg">
<path d="M52.5 90C52.5 111 69 127.5 90 127.5C111 127.5 127.5 111 127.5 90C127.5 69 111 52.5 90 52.5C69 52.5 52.5 69 52.5 90ZM90 67.5C102.75 67.5 112.5 77.25 112.5 90C112.5 102.75 102.75 112.5 90 112.5C77.25 112.5 67.5 102.75 67.5 90C67.5 77.25 77.25 67.5 90 67.5Z" fill="currentColor"/>
<path d="M97.5 37.5V22.5C97.5 18 94.5 15 90 15C85.5 15 82.5 18 82.5 22.5V37.5C82.5 42 85.5 45 90 45C94.5 45 97.5 42 97.5 37.5Z" fill="currentColor"/>
<path d="M143.25 36.7498C140.25 33.7498 135.75 33.7498 132.75 36.7498L122.25 47.2498C119.25 50.2498 119.25 54.7498 122.25 57.7498C123.75 59.2498 126 59.9998 127.5 59.9998C129 59.9998 131.25 59.2498 132.75 57.7498L143.25 47.2498C146.25 44.9998 146.25 39.7498 143.25 36.7498Z" fill="currentColor"/>
<path d="M157.5 82.5H142.5C138 82.5 135 85.5 135 90C135 94.5 138 97.5 142.5 97.5H157.5C162 97.5 165 94.5 165 90C165 85.5 162 82.5 157.5 82.5Z" fill="currentColor"/>
<path d="M132.75 121.5C129.75 118.5 125.25 118.5 122.25 121.5C119.25 124.5 119.25 129 122.25 132L132.75 142.5C134.25 144 136.5 144.75 138 144.75C139.5 144.75 141.75 144 143.25 142.5C146.25 139.5 146.25 135 143.25 132L132.75 121.5Z" fill="currentColor"/>
<path d="M82.5 142.5V157.5C82.5 162 85.5 165 90 165C94.5 165 97.5 162 97.5 157.5V142.5C97.5 138 94.5 135 90 135C85.5 135 82.5 138 82.5 142.5Z" fill="currentColor"/>
<path d="M36.7498 143.25C38.2498 144.75 40.4998 145.5 41.9998 145.5C43.4998 145.5 45.7498 144.75 47.2498 143.25L57.7498 132.75C60.7498 129.75 60.7498 125.25 57.7498 122.25C54.7498 119.25 50.2498 119.25 47.2498 122.25L36.7498 132.75C33.7498 135 33.7498 140.25 36.7498 143.25Z" fill="currentColor"/>
<path d="M15 90C15 94.5 18 97.5 22.5 97.5H37.5C42 97.5 45 94.5 45 90C45 85.5 42 82.5 37.5 82.5H22.5C18 82.5 15 85.5 15 90Z" fill="currentColor"/>
<path d="M47.2498 36.7498C44.2498 33.7498 39.7498 33.7498 36.7498 36.7498C33.7498 39.7498 33.7498 44.2498 36.7498 47.2498L47.2498 57.7498C48.7498 59.9998 50.9998 60.7498 53.2498 60.7498C55.4998 60.7498 56.9998 59.9998 58.4998 58.4998C61.4998 55.4998 61.4998 50.9998 58.4998 47.9998L47.2498 36.7498Z" fill="currentColor"/>
</svg>
